<svg width="26" height="24" viewBox="0 0 26 24" fill="none" xmlns="http://www.w3.org/2000/svg">
<path d="M16.8307 8.46401C17.3338 8.92832 17.7329 9.47957 18.0052 10.0863C18.2775 10.693 18.4177 11.3433 18.4177 12C18.4177 12.6567 18.2775 13.307 18.0052 13.9137C17.7329 14.5204 17.3338 15.0717 16.8307 15.536M19.8943 5.63601C20.7997 6.47174 21.5179 7.46389 22.0079 8.55583C22.4979 9.64777 22.7501 10.8181 22.7501 12C22.7501 13.1819 22.4979 14.3522 22.0079 15.4442C21.5179 16.5361 20.7997 17.5283 19.8943 18.364M6.0515 15H4.33333C4.04602 15 3.77047 14.8946 3.5673 14.7071C3.36414 14.5196 3.25 14.2652 3.25 14V10C3.25 9.73479 3.36414 9.48044 3.5673 9.2929C3.77047 9.10536 4.04602 9.00001 4.33333 9.00001H6.0515L11.1507 4.29301C11.8332 3.66301 13 4.10901 13 5.00001V19C13 19.891 11.8332 20.337 11.1507 19.707L6.0515 15Z" stroke="white" stroke-width="2" stroke-linecap="round" stroke-linejoin="round"/>
</svg>
