<svg width="20" height="20" viewBox="0 0 20 20" fill="none" xmlns="http://www.w3.org/2000/svg">
<path d="M16.3333 4.33333C16.3333 3.86667 16.3333 3.63333 16.2417 3.455C16.162 3.29833 16.0348 3.17087 15.8783 3.09083C15.7 3 15.4667 3 15 3H4.33333C3.86667 3 3.63333 3 3.455 3.09083C3.29821 3.17073 3.17073 3.29821 3.09083 3.455C3 3.63333 3 3.86667 3 4.33333V4.9475C3 5.15167 3 5.25333 3.02333 5.34917C3.04374 5.43448 3.07749 5.51604 3.12333 5.59083C3.17417 5.67417 3.24667 5.74667 3.39 5.89083L7.60917 10.1092C7.75333 10.2533 7.82583 10.3258 7.87667 10.4092C7.92278 10.4847 7.95611 10.5653 7.97667 10.6508C8 10.7458 8 10.8467 8 11.0458V15.0092C8 15.7233 8 16.0808 8.15 16.2958C8.21508 16.3888 8.29847 16.4675 8.39505 16.5271C8.49163 16.5868 8.59937 16.626 8.71167 16.6425C8.97083 16.6808 9.29083 16.5217 9.92917 16.2017L10.5958 15.8683C10.8642 15.735 10.9975 15.6683 11.095 15.5683C11.1815 15.48 11.2472 15.3735 11.2875 15.2567C11.3333 15.125 11.3333 14.975 11.3333 14.6758V11.0525C11.3333 10.8483 11.3333 10.7467 11.3567 10.6508C11.3771 10.5655 11.4108 10.484 11.4567 10.4092C11.5067 10.3258 11.5792 10.2542 11.7208 10.1125L11.7242 10.1092L15.9433 5.89083C16.0867 5.74667 16.1583 5.67417 16.21 5.59083C16.2561 5.51528 16.2894 5.43472 16.31 5.34917C16.3333 5.255 16.3333 5.15333 16.3333 4.95417V4.33333Z" stroke="white" stroke-linecap="round" stroke-linejoin="round"/>
</svg>
