<svg width="17" height="17" viewBox="0 0 17 17" fill="none" xmlns="http://www.w3.org/2000/svg">
<path d="M15.9375 8.5C15.9379 8.68038 15.8917 8.8578 15.8033 9.01501C15.7148 9.17222 15.5872 9.30386 15.4328 9.39715L5.865 15.2502C5.70369 15.349 5.51894 15.4029 5.32982 15.4064C5.1407 15.4099 4.95408 15.3629 4.78922 15.2701C4.62593 15.1788 4.48991 15.0457 4.39514 14.8844C4.30037 14.7231 4.25027 14.5395 4.25 14.3524V2.64762C4.25027 2.46054 4.30037 2.27691 4.39514 2.11562C4.48991 1.95432 4.62593 1.82118 4.78922 1.72988C4.95408 1.63715 5.1407 1.5901 5.32982 1.5936C5.51894 1.5971 5.70369 1.65103 5.865 1.74981L15.4328 7.60285C15.5872 7.69613 15.7148 7.82778 15.8033 7.98499C15.8917 8.1422 15.9379 8.31962 15.9375 8.5Z" fill="white"/>
</svg>
