<svg width="28" height="28" viewBox="0 0 28 28" fill="none" xmlns="http://www.w3.org/2000/svg">
<path d="M14 21.5C15.9891 21.5 17.8968 20.7098 19.3033 19.3033C20.7098 17.8968 21.5 15.9891 21.5 14C21.5 12.0109 20.7098 10.1032 19.3033 8.6967C17.8968 7.29018 15.9891 6.5 14 6.5C12.0109 6.5 10.1032 7.29018 8.6967 8.6967C7.29018 10.1032 6.5 12.0109 6.5 14C6.5 15.9891 7.29018 17.8968 8.6967 19.3033C10.1032 20.7098 12.0109 21.5 14 21.5ZM14 2C7.373 2 2 7.373 2 14C2 20.627 7.373 26 14 26C20.627 26 26 20.627 26 14C26 7.373 20.627 2 14 2ZM3.5 14C3.5 8.201 8.201 3.5 14 3.5C19.799 3.5 24.5 8.201 24.5 14C24.5 19.799 19.799 24.5 14 24.5C8.201 24.5 3.5 19.799 3.5 14Z" fill="#FF0000"/>
</svg>
