<svg width="20" height="20" viewBox="0 0 20 20" fill="none" xmlns="http://www.w3.org/2000/svg">
<path d="M3 5.996C3 5.73079 3.10536 5.47643 3.29289 5.2889C3.48043 5.10136 3.73478 4.996 4 4.996H4.5C4.63261 4.996 4.75979 4.94332 4.85355 4.84956C4.94732 4.75579 5 4.62861 5 4.496C5 4.36339 4.94732 4.23622 4.85355 4.14245C4.75979 4.04868 4.63261 3.996 4.5 3.996H4C3.46957 3.996 2.96086 4.20672 2.58579 4.58179C2.21071 4.95686 2 5.46557 2 5.996V6.496C2 6.62861 2.05268 6.75579 2.14645 6.84956C2.24021 6.94332 2.36739 6.996 2.5 6.996C2.63261 6.996 2.75979 6.94332 2.85355 6.84956C2.94732 6.75579 3 6.62861 3 6.496V5.996ZM4 14.004C3.73478 14.004 3.48043 13.8986 3.29289 13.7111C3.10536 13.5236 3 13.2692 3 13.004V12.504C3 12.3714 2.94732 12.2442 2.85355 12.1504C2.75979 12.0567 2.63261 12.004 2.5 12.004C2.36739 12.004 2.24021 12.0567 2.14645 12.1504C2.05268 12.2442 2 12.3714 2 12.504V13.004C2 13.5344 2.21071 14.0431 2.58579 14.4182C2.96086 14.7933 3.46957 15.004 4 15.004H4.25C4.38261 15.004 4.50979 14.9513 4.60355 14.8576C4.69732 14.7638 4.75 14.6366 4.75 14.504C4.75 14.3714 4.69732 14.2442 4.60355 14.1504C4.50979 14.0567 4.38261 14.004 4.25 14.004H4ZM2.5 8C2.63261 8 2.75979 8.05268 2.85355 8.14645C2.94732 8.24022 3 8.36739 3 8.5V10.5C3 10.6326 2.94732 10.7598 2.85355 10.8536C2.75979 10.9473 2.63261 11 2.5 11C2.36739 11 2.24021 10.9473 2.14645 10.8536C2.05268 10.7598 2 10.6326 2 10.5V8.5C2 8.36739 2.05268 8.24022 2.14645 8.14645C2.24021 8.05268 2.36739 8 2.5 8ZM17 5.996C17 5.73079 16.8946 5.47643 16.7071 5.2889C16.5196 5.10136 16.2652 4.996 16 4.996H15.5C15.3674 4.996 15.2402 4.94332 15.1464 4.84956C15.0527 4.75579 15 4.62861 15 4.496C15 4.36339 15.0527 4.23622 15.1464 4.14245C15.2402 4.04868 15.3674 3.996 15.5 3.996H16C16.5304 3.996 17.0391 4.20672 17.4142 4.58179C17.7893 4.95686 18 5.46557 18 5.996V6.496C18 6.62861 17.9473 6.75579 17.8536 6.84956C17.7598 6.94332 17.6326 6.996 17.5 6.996C17.3674 6.996 17.2402 6.94332 17.1464 6.84956C17.0527 6.75579 17 6.62861 17 6.496V5.996ZM17 13.004C17 13.2692 16.8946 13.5236 16.7071 13.7111C16.5196 13.8986 16.2652 14.004 16 14.004H15.748C15.6154 14.004 15.4882 14.0567 15.3944 14.1504C15.3007 14.2442 15.248 14.3714 15.248 14.504C15.248 14.6366 15.3007 14.7638 15.3944 14.8576C15.4882 14.9513 15.6154 15.004 15.748 15.004H16C16.5304 15.004 17.0391 14.7933 17.4142 14.4182C17.7893 14.0431 18 13.5344 18 13.004V12.504C18 12.3714 17.9473 12.2442 17.8536 12.1504C17.7598 12.0567 17.6326 12.004 17.5 12.004C17.3674 12.004 17.2402 12.0567 17.1464 12.1504C17.0527 12.2442 17 12.3714 17 12.504V13.004ZM17 8.5C17 8.36739 17.0527 8.24022 17.1464 8.14645C17.2402 8.05268 17.3674 8 17.5 8C17.6326 8 17.7598 8.05268 17.8536 8.14645C17.9473 8.24022 18 8.36739 18 8.5V10.5C18 10.6326 17.9473 10.7598 17.8536 10.8536C17.7598 10.9473 17.6326 11 17.5 11C17.3674 11 17.2402 10.9473 17.1464 10.8536C17.0527 10.7598 17 10.6326 17 10.5V8.5ZM6 4.496C6 4.36339 6.05268 4.23622 6.14645 4.14245C6.24021 4.04868 6.36739 3.996 6.5 3.996H9C9.13261 3.996 9.25979 4.04868 9.35355 4.14245C9.44732 4.23622 9.5 4.36339 9.5 4.496C9.5 4.62861 9.44732 4.75579 9.35355 4.84956C9.25979 4.94332 9.13261 4.996 9 4.996H6.5C6.36739 4.996 6.24021 4.94332 6.14645 4.84956C6.05268 4.75579 6 4.62861 6 4.496ZM11 3.996C10.8674 3.996 10.7402 4.04868 10.6464 4.14245C10.5527 4.23622 10.5 4.36339 10.5 4.496C10.5 4.62861 10.5527 4.75579 10.6464 4.84956C10.7402 4.94332 10.8674 4.996 11 4.996H13.5C13.6326 4.996 13.7598 4.94332 13.8536 4.84956C13.9473 4.75579 14 4.62861 14 4.496C14 4.36339 13.9473 4.23622 13.8536 4.14245C13.7598 4.04868 13.6326 3.996 13.5 3.996H11ZM5 6C4.73478 6 4.48043 6.10536 4.29289 6.2929C4.10536 6.48043 4 6.73479 4 7V12C4 12.2652 4.10536 12.5196 4.29289 12.7071C4.48043 12.8946 4.73478 13 5 13H7.698L8.193 12.257L6.244 9.334C6.13455 9.17 6.05858 8.98598 6.02045 8.79253C5.98232 8.59908 5.98278 8.4 6.0218 8.20673C6.06083 8.01346 6.13765 7.8298 6.24786 7.6663C6.35807 7.50281 6.49949 7.36269 6.664 7.254C6.99564 7.03486 7.40059 6.95602 7.79022 7.03473C8.17985 7.11345 8.52244 7.3433 8.743 7.674L9.996 9.554L11.249 7.674C11.4696 7.34358 11.8119 7.11392 12.2013 7.03522C12.5907 6.95652 12.9954 7.03518 13.327 7.254C14.02 7.711 14.208 8.644 13.747 9.334L11.8 12.257L12.295 13H15C15.2652 13 15.5196 12.8946 15.7071 12.7071C15.8946 12.5196 16 12.2652 16 12V7C16 6.73479 15.8946 6.48043 15.7071 6.2929C15.5196 6.10536 15.2652 6 15 6H5Z" fill="white"/>
<path d="M7.21598 8.087C7.16112 8.12305 7.11394 8.1696 7.07717 8.22398C7.0404 8.27836 7.01476 8.33949 7.00175 8.40382C6.98873 8.46816 6.98859 8.53445 7.00133 8.59884C7.01407 8.66324 7.03944 8.72447 7.07598 8.77901L9.39498 12.257L8.15698 14.114C7.85163 14.0081 7.52518 13.9778 7.20556 14.0257C6.88595 14.0736 6.58269 14.1982 6.32176 14.3888C6.06082 14.5795 5.84998 14.8306 5.70729 15.1206C5.56459 15.4105 5.49429 15.7308 5.5024 16.0538C5.51051 16.3769 5.5968 16.6932 5.75386 16.9757C5.91093 17.2581 6.13411 17.4983 6.40428 17.6756C6.67445 17.853 6.98358 17.9622 7.3052 17.994C7.62681 18.0257 7.95133 17.9791 8.25098 17.858C8.54903 17.7378 8.81372 17.5475 9.02263 17.3033C9.23155 17.0591 9.37853 16.7681 9.45113 16.455C9.52374 16.1419 9.51982 15.816 9.43972 15.5047C9.35962 15.1935 9.2057 14.9061 8.99098 14.667L9.99598 13.159L11.005 14.672C10.8536 14.84 10.733 15.034 10.643 15.254C10.4716 15.6779 10.4507 16.1477 10.5836 16.5851C10.7166 17.0225 10.9954 17.4012 11.3736 17.6581C11.7518 17.9149 12.2066 18.0344 12.6623 17.9967C13.1179 17.959 13.5469 17.7663 13.8777 17.4507C14.2085 17.1351 14.4212 16.7158 14.4804 16.2624C14.5396 15.8091 14.4416 15.3491 14.2029 14.9592C13.9642 14.5693 13.5991 14.2729 13.1684 14.1195C12.7377 13.9661 12.2675 13.9648 11.836 14.116L10.596 12.257L10.599 12.254L9.99798 11.353L9.99598 11.356L7.90998 8.228C7.8361 8.11792 7.72174 8.04145 7.59178 8.01523C7.46182 7.98901 7.32676 8.01517 7.21598 8.08801M12.5 17C12.2348 17 11.9804 16.8946 11.7929 16.7071C11.6053 16.5196 11.5 16.2652 11.5 16C11.5 15.7348 11.6053 15.4804 11.7929 15.2929C11.9804 15.1054 12.2348 15 12.5 15C12.7652 15 13.0195 15.1054 13.2071 15.2929C13.3946 15.4804 13.5 15.7348 13.5 16C13.5 16.2652 13.3946 16.5196 13.2071 16.7071C13.0195 16.8946 12.7652 17 12.5 17ZM7.49998 17C7.23476 17 6.98041 16.8946 6.79287 16.7071C6.60534 16.5196 6.49998 16.2652 6.49998 16C6.49998 15.7348 6.60534 15.4804 6.79287 15.2929C6.98041 15.1054 7.23476 15 7.49998 15C7.76519 15 8.01955 15.1054 8.20708 15.2929C8.39462 15.4804 8.49998 15.7348 8.49998 16C8.49998 16.2652 8.39462 16.5196 8.20708 16.7071C8.01955 16.8946 7.76519 17 7.49998 17ZM10.599 10.451L11.199 11.353L12.916 8.77901C12.9525 8.72447 12.9779 8.66324 12.9906 8.59884C13.0034 8.53445 13.0032 8.46816 12.9902 8.40382C12.9772 8.33949 12.9516 8.27836 12.9148 8.22398C12.878 8.1696 12.8308 8.12305 12.776 8.087C12.7212 8.05039 12.6597 8.02496 12.5951 8.01218C12.5305 7.9994 12.464 7.99952 12.3994 8.01253C12.3348 8.02554 12.2734 8.05119 12.2188 8.08799C12.1641 8.1248 12.1173 8.17204 12.081 8.22701L10.599 10.451Z" fill="white"/>
</svg>
